<?xml version="1.0" encoding="iso-8859-1"?>
<!DOCTYPE svg PUBLIC "-//W3C//DTD SVG 1.1//EN" "http://www.w3.org/Graphics/SVG/1.1/DTD/svg11.dtd">
<svg xmlns="http://www.w3.org/2000/svg" data-name="01-light bulbs" viewBox="0 0 64 64">
	<path fill="red" d="M44.29,43.09a.689.689,0,0,0-.13.11L44,43H19.6A25.633,25.633,0,0,1,9,24C9,9,19.3,1,32,1S55,9,55,24A25.663,25.663,0,0,1,44.29,43.09Z"></path>
	<path fill="red" d="M19.6,43H44l.16.2a3.908,3.908,0,0,0-1.4,2.5L42,51s0,.5-1.25,1S37,53,32,53c-5.31,0-7.8-.56-8.97-1.09C22,51.44,22,51,22,51l-.76-5.3a3.952,3.952,0,0,0-1.53-2.61A1.063,1.063,0,0,1,19.6,43Z"></path>
	<path fill="red" d="M32.127,50c-5.621,0-8.257-.56-9.5-1.09a1.988,1.988,0,0,1-1.04-.761L22,51s0,.44,1.03.91C24.2,52.44,26.69,53,32,53c5,0,7.5-.5,8.75-1S42,51,42,51l.361-2.515A3.557,3.557,0,0,1,41.39,49C40.067,49.5,37.42,50,32.127,50Z"></path>
	<path fill="#fff" d="M35.748,38h0C24.289,38,15,30.026,15,20.191V18.809C15,9.471,23.378,1.825,34.032,1.074,33.362,1.028,32.685,1,32,1,19.3,1,9,9,9,24A25.633,25.633,0,0,0,19.6,43H44l.16.2a.689.689,0,0,1,.13-.11A26.41,26.41,0,0,0,54.449,27.876C51.1,33.872,43.979,38,35.748,38Z"></path>
	<path fill="#fff" d="M34.032,1.074C23.378,1.825,15,9.471,15,18.809v1.382C15,30.026,24.289,38,35.748,38h0c8.231,0,15.352-4.128,18.7-10.124A18.8,18.8,0,0,0,55,24C55,9.809,45.78,1.888,34.032,1.074Z"></path>
	<path fill="red" d="M32,57c4.97,0,9,0,9-2v1.44a3.693,3.693,0,0,1-3.03,3.41,4.776,4.776,0,0,1-1.21.15H27.24a4.776,4.776,0,0,1-1.21-.15A3.693,3.693,0,0,1,23,56.44V55C23,57,27.03,57,32,57Z"></path>
	<path fill="red" d="M36.76,60a4.776,4.776,0,0,0,1.21-.15L38,60v1a2.006,2.006,0,0,1-2,2H28a2.006,2.006,0,0,1-2-2V60l.03-.15a4.776,4.776,0,0,0,1.21.15Z"></path>
	<path fill="red" d="M23.03,51.91C24.2,52.44,26.69,53,32,53c5,0,7.5-.5,8.75-1H41v3c0,2-4.03,2-9,2s-9,0-9-2V52Z"></path>

	<path fill="red" d="M27,58V56.9c-2.411-.174-4-.641-4-1.9v1.44a3.693,3.693,0,0,0,3.03,3.41,4.776,4.776,0,0,0,1.21.15H29A2,2,0,0,1,27,58Z"></path>
	<path fill="red" d="M37,56.9V58a2,2,0,0,1-2,2h1.76a4.776,4.776,0,0,0,1.21-.15A3.693,3.693,0,0,0,41,56.44V55C41,56.255,39.411,56.722,37,56.9Z"></path>
	<path fill="red" d="M27,56.9V52.78a13.3,13.3,0,0,1-3.97-.87L23,52v3C23,56.255,24.589,56.722,27,56.9Z"></path>
	<path fill="red" d="M40.75,52a14.451,14.451,0,0,1-3.75.778V56.9c2.411-.174,4-.641,4-1.9V52Z"></path>
	<path fill="red" d="M37,58V56.9c-.616.045-1.289.069-2,.084V60A2,2,0,0,0,37,58Z"></path>
	<path fill="red" d="M35,56.98c.711-.015,1.384-.039,2-.084h0V52.778h0c-.593.062-1.258.113-2,.151Z"></path>
	<path fill="red" d="M40,57.143v-.837c-.033.015-.06.033-.094.047l-.015,0a4.607,4.607,0,0,1-.518.177c-.055.015-.116.029-.173.044-.146.037-.3.071-.458.1l-.209.038q-.257.043-.533.078V59.84a4.4,4.4,0,0,0,1.738-.869A1.977,1.977,0,0,0,40,58Z"></path>
	<path fill="red" d="M39.693,52.333c-.121.03-.248.06-.382.09l-.027.006c-.374.081-.8.158-1.284.227V56.8c.184-.024.362-.049.533-.078l.209-.038c.16-.031.312-.065.458-.1.058-.015.118-.029.173-.044a4.607,4.607,0,0,0,.518-.177l.015,0c.035-.015.06-.035.094-.05V52.251l-.233.063Z"></path>
	<path fill="red" d="M35,56.98c-.638.013-1.3.018-2,.019v3h2V56.98Z"></path>
	<path fill="red" d="M35,56.98V52.929c-.613.031-1.275.053-2,.063V57C33.7,57,34.362,56.993,35,56.98Z"></path>
	<path fill="red" d="M30,43h4V37.924a23.67,23.67,0,0,1-4-.632Z"></path>
	<path fill="red" d="M22.563,20.281,30,27.718v9.574a23.67,23.67,0,0,0,4,.632V27.718L40.919,20.8c-.235-1.275-.527-2.549-.85-3.8a1.913,1.913,0,0,0-1.35.562L32,24.281l-6.719-6.718a1.915,1.915,0,0,0-1.851-.491c-.378.97-.747,1.95-1.1,2.928A1.847,1.847,0,0,0,22.563,20.281Z"></path>
	<path fill="red" d="M41.437,20.281a1.921,1.921,0,0,0,0-2.718h0A1.915,1.915,0,0,0,40.069,17c.323,1.249.615,2.523.85,3.8Z"></path>
	<path d="M32,0C17.645,0,8,9.645,8,24c0,.475.126,11.719,11.111,19.892a2.961,2.961,0,0,1,1.142,1.949L21,51.092a1.828,1.828,0,0,0,1,1.4v3.952a4.555,4.555,0,0,0,3,4.1V61a3,3,0,0,0,3,3h8a3,3,0,0,0,3-3v-.453a4.555,4.555,0,0,0,3-4.1V52.492a1.834,1.834,0,0,0,1-1.4l.75-5.25a2.961,2.961,0,0,1,1.142-1.949C55.874,35.719,56,24.475,56,24,56,9.645,46.355,0,32,0Zm5,61a1,1,0,0,1-1,1H28a1,1,0,0,1-1-1v-.021c.08,0,.155.021.235.021h9.53c.08,0,.155-.018.235-.021Zm-.235-2h-9.53a3.351,3.351,0,0,1-2.959-1.531C26.1,58,28.865,58,32,58s5.9,0,7.724-.531A3.351,3.351,0,0,1,36.765,59Zm7.3-17H40v2h2.283a4.962,4.962,0,0,0-.515,1.558l-.738,5.157C40.758,50.948,39.129,52,32,52v2a33.7,33.7,0,0,0,8-.715V55c0,1-5.008,1-8,1s-8,0-8-1V53.287a17.2,17.2,0,0,0,1.858.36l.284-1.98c-2.291-.327-3-.8-3.172-.951l-.738-5.157A4.959,4.959,0,0,0,21.717,44H38V42H35V28.132l7.144-7.144a2.922,2.922,0,1,0-4.132-4.132L32,22.867l-6.012-6.011a2.922,2.922,0,0,0-4.132,4.132L29,28.132V42H19.935A24.884,24.884,0,0,1,10,24C10,10.636,18.636,2,32,2s22,8.636,22,22A24.883,24.883,0,0,1,44.065,42ZM30.707,27.011,23.27,19.574a.922.922,0,0,1,1.3-1.3l6.719,6.718a1,1,0,0,0,1.414,0l6.719-6.718a.922.922,0,1,1,1.3,1.3l-7.437,7.437a1,1,0,0,0-.293.707V42H31V27.718A1,1,0,0,0,30.707,27.011Z"></path>
	<path d="M27.926,53.865q.924.069,2.043.1l.062-2c-.716-.022-1.366-.056-1.957-.1Z"></path>
	<path d="M51,24A19.021,19.021,0,0,0,32,5V7A17.019,17.019,0,0,1,49,24Z"></path>
	<rect width="2" height="2" x="49" y="26"></rect>
</svg>
