<?xml version="1.0" encoding="iso-8859-1"?>
<!DOCTYPE svg PUBLIC "-//W3C//DTD SVG 1.1//EN" "http://www.w3.org/Graphics/SVG/1.1/DTD/svg11.dtd">
<svg xmlns="http://www.w3.org/2000/svg" version="1.1" viewBox="0 0 128 128" xml:space="preserve">
	<path fill="#fff" d="M65.7,93.1c4.9,0,13.6,0.6,20.2,4.5c13.9,8.3,17.2,18.8,24.1,18.3c7.1-0.5,11-10.3,12.9-20.6 c4.8-26.6-8.5-75.1-32.1-71.7c-6.7,0.9-19.2,11.5-27,11.5h0c-7.7,0-20.3-10.5-27-11.5C13.3,20.3,0,68.8,4.8,95.4 c1.9,10.3,5.8,20.1,12.9,20.6c6.9,0.5,10.2-10,24.1-18.3c6.6-4,15.3-4.6,20.2-4.5H65.7z"></path>
	<circle cx="36" cy="63" r="14" fill="red"></circle>
	<path fill="red" d="M82,79h-8c-5.5,0-10,4.5-10,10v4.1h1.7c4.9,0,13.6,0.6,20.2,4.5c13.9,8.3,17.2,18.8,24.1,18.3 c7.1-0.5,11-10.3,12.9-20.6c3.4-18.5-2-47.5-13.5-62.4H102c-5.5,0-10,4.5-10,10v26C92,74.5,87.5,79,82,79z"></path>
	<path d="M36,80c-9.4,0-17-7.6-17-17s7.6-17,17-17s17,7.6,17,17S45.4,80,36,80z M36,52c-6.1,0-11,4.9-11,11 s4.9,11,11,11s11-4.9,11-11S42.1,52,36,52z"></path>
	<path d="M109.5,119c-4.7,0-7.9-3.4-11.7-7.4c-3.2-3.4-7.3-7.6-13.5-11.4c-6.1-3.6-14.3-4.1-18.7-4.1h-3.6 c-3.9,0-9.7,0.4-14.9,2.3c-1.6,0.6-3.3-0.2-3.9-1.8s0.2-3.3,1.8-3.9c6.1-2.3,12.6-2.7,17.1-2.7h3.6c4.9,0,14.4,0.6,21.8,4.9 c7,4.2,11.3,8.7,14.8,12.4c3.5,3.7,5.4,5.6,7.6,5.5c4.4-0.3,8.1-6.9,10.2-18.1c4.1-22.5-4.7-51.7-15.2-62.6 c-4.2-4.4-8.8-6.3-13.5-5.6c-2.4,0.3-6.5,2.6-10.4,4.8C75,34.7,69,38,64,38.1c0,0-0.1,0-0.1,0c-5.1,0-11.1-3.4-17-6.7 c-3.9-2.2-8-4.5-10.4-4.8c-4.7-0.7-9.3,1.2-13.5,5.6C12.4,43.2,3.7,72.3,7.8,94.8c2,11.2,5.7,17.8,10.2,18.1 c2.1,0.1,4.1-1.8,7.6-5.5c1.3-1.3,2.7-2.9,4.4-4.4c1.2-1.1,3.1-1.1,4.2,0.1c1.1,1.2,1.1,3.1-0.1,4.2c-1.5,1.5-2.9,2.9-4.2,4.2 c-3.9,4.1-7.3,7.7-12.3,7.3c-7.6-0.5-13-8.5-15.6-23C0,85.8,0.7,72.6,3.6,59.8c3.2-13.7,8.5-25,15.1-31.8c5.6-5.8,12-8.3,18.7-7.4 c3.5,0.5,7.9,2.9,12.5,5.5c4.9,2.7,10.4,5.9,14,5.9c3.5,0,9.1-3.1,14.1-5.9c4.6-2.6,9-5,12.5-5.5c6.7-0.9,13.1,1.6,18.7,7.4 c6.6,6.8,11.9,18.1,15.1,31.8c3,12.8,3.6,25.9,1.7,36.1c-2.6,14.5-8.1,22.5-15.6,23C110,119,109.7,119,109.5,119z"></path>
	<path d="M105,60H95V50c0-1.7-1.3-3-3-3s-3,1.3-3,3v10H79c-1.7,0-3,1.3-3,3s1.3,3,3,3h10v10c0,1.7,1.3,3,3,3s3-1.3,3-3 V66h10c1.7,0,3-1.3,3-3S106.7,60,105,60z"></path>
</svg>
