<?xml version="1.0" encoding="iso-8859-1"?>
<!DOCTYPE svg PUBLIC "-//W3C//DTD SVG 1.1//EN" "http://www.w3.org/Graphics/SVG/1.1/DTD/svg11.dtd">
<svg xmlns="http://www.w3.org/2000/svg" viewBox="0 0 100 100">
	<path fill="#1f212b" d="M76.654,85.577c-0.8,0-1.552-0.312-2.118-0.878c-0.981-0.981-1.167-2.481-0.451-3.646 c4.594-7.48,7.022-16.958,7.022-27.407c0-16.759-14.246-30.917-31.107-30.917S18.892,36.888,18.892,53.646 c0,10.421,2.435,19.891,7.041,27.387c0.715,1.166,0.53,2.665-0.451,3.646c-0.567,0.566-1.319,0.878-2.119,0.878c0,0,0,0,0,0 c-1.044,0-1.995-0.528-2.541-1.413c-5.754-9.324-8.795-21.562-8.795-35.392C12.027,28.289,29.416,11,49.999,11 s37.972,17.289,37.972,37.753c0,13.855-3.035,26.1-8.775,35.409C78.649,85.049,77.699,85.577,76.654,85.577z M49.999,20.729 c17.946,0,33.107,15.074,33.107,32.917c0,10.818-2.53,20.658-7.318,28.454c-0.226,0.367-0.158,0.865,0.162,1.185 c0.433,0.434,1.225,0.341,1.543-0.173c5.546-8.993,8.478-20.875,8.478-34.359C85.971,29.373,69.498,13,49.999,13 C30.5,13,14.027,29.373,14.027,48.753c0,13.458,2.938,25.333,8.497,34.341c0.179,0.291,0.493,0.464,0.839,0.464h0 c0.265,0,0.516-0.104,0.704-0.292c0.319-0.319,0.387-0.818,0.161-1.186c-4.799-7.811-7.336-17.643-7.336-28.434 C16.892,35.804,32.053,20.729,49.999,20.729z"></path>
	<path fill="#1f212b" d="M82.22,30.504h-1.104c-1.982,0-3.823-0.839-5.05-2.302c-2.51-2.992-5.472-5.519-8.803-7.511 c-0.237-0.142-0.314-0.448-0.173-0.686c0.142-0.237,0.449-0.315,0.686-0.172c3.428,2.049,6.475,4.648,9.057,7.726 c1.037,1.235,2.598,1.944,4.284,1.944h1.104c0.276,0,0.5,0.224,0.5,0.5S82.497,30.504,82.22,30.504z M18.882,30.504h-1.104 c-0.276,0-0.5-0.224-0.5-0.5s0.224-0.5,0.5-0.5h1.104c1.686,0,3.247-0.709,4.283-1.944c6.748-8.042,16.529-12.654,26.834-12.654 c1.146,0,2.305,0.058,3.447,0.172c0.275,0.027,0.476,0.271,0.448,0.547c-0.027,0.274-0.266,0.484-0.547,0.447 c-1.109-0.11-2.235-0.166-3.348-0.166c-10.009,0-19.511,4.482-26.068,12.297C22.704,29.665,20.864,30.504,18.882,30.504z M63.059,18.515c-0.064,0-0.129-0.013-0.192-0.038c-0.303-0.126-0.609-0.248-0.916-0.366c-0.258-0.099-0.387-0.387-0.289-0.646 c0.099-0.258,0.389-0.385,0.646-0.288c0.317,0.12,0.631,0.246,0.943,0.376c0.255,0.106,0.376,0.399,0.27,0.654 C63.44,18.398,63.254,18.515,63.059,18.515z M60.241,17.484c-0.05,0-0.101-0.008-0.151-0.023c-1.563-0.494-3.175-0.876-4.79-1.135 c-0.272-0.044-0.458-0.301-0.415-0.573c0.043-0.273,0.299-0.457,0.573-0.415c1.663,0.267,3.323,0.66,4.933,1.17 c0.263,0.083,0.409,0.364,0.326,0.627C60.65,17.349,60.453,17.484,60.241,17.484z"></path>
	<path fill="#1f212b" d="M18.56,59.559c-4.17-0.32-6.216-5.503-6.083-15.406l1,0.014c-0.124,9.149,1.66,14.127,5.159,14.395 L18.56,59.559z"></path>
	<path fill="#1f212b" d="M81.116,59.558l-0.076-0.997c3.498-0.268,5.282-5.245,5.158-14.395l1-0.014 C87.332,54.056,85.286,59.238,81.116,59.558z"></path>
	<path fill="red" d="M43.83,87.842L39.771,90L24.233,60.777l4.059-2.158c2.242-1.192,5.025-0.341,6.217,1.901	l11.222,21.106C46.923,83.867,46.072,86.65,43.83,87.842z"></path>
	<path fill="red" d="M27.769,87.01c4.052-0.253,8.048,0.856,12.002,2.99L24.233,60.777	c-0.248,4.317-1.649,8.195-4.233,11.622C21.208,77.151,23.875,82.029,27.769,87.01z"></path>
	<path fill="#1f212b" d="M42.667,89.091c-0.179,0-0.352-0.097-0.442-0.266l-1.455-2.735c-0.13-0.243-0.037-0.546,0.207-0.676 c0.243-0.131,0.546-0.037,0.676,0.207l1.455,2.735c0.13,0.243,0.037,0.546-0.207,0.676C42.827,89.072,42.746,89.091,42.667,89.091z M36.518,77.526c-0.179,0-0.352-0.096-0.442-0.266l-0.47-0.883c-0.13-0.243-0.037-0.546,0.207-0.676 c0.243-0.131,0.546-0.038,0.676,0.207l0.47,0.883c0.13,0.243,0.037,0.546-0.207,0.676C36.678,77.508,36.597,77.526,36.518,77.526z M35.109,74.877c-0.179,0-0.352-0.097-0.442-0.266l-2.347-4.414c-0.13-0.243-0.037-0.546,0.207-0.676 c0.243-0.132,0.546-0.037,0.676,0.207l2.347,4.414c0.13,0.243,0.037,0.546-0.207,0.676C35.269,74.858,35.188,74.877,35.109,74.877z M31.823,68.696c-0.179,0-0.352-0.097-0.442-0.266l-4.695-8.829c-0.13-0.243-0.037-0.546,0.207-0.676 c0.243-0.132,0.546-0.037,0.676,0.207l4.695,8.829c0.13,0.243,0.037,0.546-0.207,0.676C31.983,68.678,31.902,68.696,31.823,68.696z"></path>
	<path fill="#1f212b" d="M40.113,90.443c-0.179,0-0.352-0.097-0.442-0.266L24.074,60.843 c-0.13-0.243-0.037-0.546,0.207-0.676c0.243-0.132,0.546-0.037,0.676,0.207l15.598,29.335c0.13,0.243,0.037,0.546-0.207,0.676 C40.273,90.425,40.192,90.443,40.113,90.443z"></path>
	<path fill="#1f212b" d="M39.771,91c-0.163,0-0.327-0.04-0.475-0.12c-4.01-2.162-7.729-3.104-11.465-2.871 c-0.334,0.014-0.647-0.122-0.851-0.382c-4.074-5.213-6.749-10.254-7.95-14.982c-0.075-0.294-0.012-0.606,0.171-0.849 c2.44-3.235,3.797-6.962,4.033-11.077c0.02-0.349,0.221-0.661,0.529-0.825l4.059-2.157c0.807-0.43,1.714-0.656,2.624-0.656 c2.076,0,3.971,1.138,4.945,2.97l11.222,21.105c0.702,1.32,0.848,2.834,0.411,4.264c-0.438,1.431-1.405,2.604-2.725,3.306 l-4.058,2.158C40.094,90.961,39.933,91,39.771,91z M28.909,85.976c3.504,0,7.155,0.973,10.861,2.893l3.59-1.909 c0.849-0.451,1.47-1.205,1.751-2.124c0.281-0.919,0.188-1.893-0.264-2.74L33.626,60.989C33,59.812,31.782,59.08,30.447,59.08 c-0.592,0-1.159,0.142-1.685,0.422l-3.569,1.897c-0.334,4.128-1.712,7.894-4.103,11.207c1.153,4.206,3.557,8.703,7.151,13.38 C28.464,85.979,28.687,85.976,28.909,85.976z"></path>
	<path fill="red" d="M56.17,87.842L60.229,90l15.538-29.223l-4.059-2.158c-2.242-1.192-5.025-0.341-6.217,1.901	L54.269,81.625C53.077,83.867,53.928,86.65,56.17,87.842z"></path>
	<path fill="red" d="M72.231,87.01c-4.052-0.253-8.048,0.856-12.002,2.99l15.538-29.223	c0.248,4.317,1.649,8.195,4.233,11.622C78.792,77.151,76.125,82.029,72.231,87.01z"></path>
	<path fill="#1f212b" d="M57.333,89.091c-0.079,0-0.16-0.019-0.234-0.059c-0.244-0.13-0.336-0.433-0.207-0.676l1.455-2.735 c0.129-0.243,0.432-0.337,0.676-0.207c0.244,0.13,0.336,0.433,0.207,0.676l-1.455,2.735C57.685,88.994,57.512,89.091,57.333,89.091 z M63.482,77.526c-0.079,0-0.16-0.019-0.234-0.059c-0.244-0.13-0.336-0.433-0.207-0.676l0.47-0.883 c0.129-0.245,0.433-0.337,0.676-0.207s0.336,0.433,0.207,0.676l-0.47,0.883C63.834,77.431,63.661,77.526,63.482,77.526z M64.891,74.877c-0.079,0-0.16-0.019-0.234-0.059c-0.244-0.13-0.336-0.433-0.207-0.676l2.347-4.414 c0.129-0.243,0.433-0.338,0.676-0.207c0.244,0.13,0.336,0.433,0.207,0.676l-2.347,4.414C65.243,74.78,65.07,74.877,64.891,74.877z M68.177,68.696c-0.079,0-0.16-0.019-0.234-0.059c-0.244-0.13-0.336-0.433-0.207-0.676l4.695-8.829 c0.129-0.244,0.432-0.338,0.676-0.207c0.244,0.13,0.336,0.433,0.207,0.676l-4.695,8.829C68.529,68.6,68.356,68.696,68.177,68.696z"></path>
	<path fill="#1f212b" d="M59.887,90.443c-0.079,0-0.16-0.019-0.234-0.059c-0.244-0.13-0.336-0.433-0.207-0.676l15.598-29.335 c0.129-0.243,0.432-0.339,0.676-0.207c0.244,0.13,0.336,0.433,0.207,0.676L60.329,90.178 C60.239,90.347,60.066,90.443,59.887,90.443z"></path>
	<path fill="#1f212b" d="M60.229,91c-0.161,0-0.323-0.039-0.47-0.117L55.7,88.725c-1.32-0.701-2.287-1.875-2.725-3.306 c-0.437-1.43-0.291-2.943,0.411-4.264L64.608,60.05c0.974-1.832,2.869-2.97,4.945-2.97c0.91,0,1.817,0.227,2.625,0.656 l4.059,2.157c0.309,0.164,0.509,0.477,0.529,0.825c0.236,4.115,1.593,7.842,4.033,11.077c0.183,0.242,0.246,0.555,0.171,0.849 c-1.201,4.729-3.876,9.77-7.95,14.982c-0.203,0.26-0.514,0.397-0.851,0.382c-3.726-0.229-7.454,0.709-11.465,2.871 C60.555,90.96,60.392,91,60.229,91z M69.553,59.08c-1.335,0-2.553,0.731-3.179,1.909L55.152,82.095 c-0.451,0.848-0.545,1.821-0.264,2.74c0.281,0.919,0.902,1.673,1.75,2.124l3.591,1.909c3.941-2.042,7.796-2.997,11.529-2.882 c3.595-4.677,5.998-9.174,7.151-13.38c-2.391-3.313-3.769-7.079-4.103-11.207l-3.569-1.897 C70.712,59.222,70.145,59.08,69.553,59.08z"></path>
</svg>
