<?xml version="1.0" encoding="iso-8859-1"?>
<!-- Generator: Adobe Illustrator 18.0.0, SVG Export Plug-In . SVG Version: 6.00 Build 0)  -->
<!DOCTYPE svg PUBLIC "-//W3C//DTD SVG 1.1//EN" "http://www.w3.org/Graphics/SVG/1.1/DTD/svg11.dtd">
<svg xmlns="http://www.w3.org/2000/svg" viewBox="0 0 64 64">
	<path fill="#fff" d="M42,27H32.889a7.994,7.994,0,0,1-3.578-.845L23,23l-8.224,3.655A3.992,3.992,0,0,1,13.151,27H10.657a4,4,0,0,1-2.829-1.172L4,22H1l1.406,3.514a4.007,4.007,0,0,1,0,2.972l-1.12,2.8A4,4,0,0,0,1,32.77V42a2,2,0,0,0,2,2H45.4a27.993,27.993,0,0,0,10.769-2.154L63,39V37.62a8,8,0,0,0-6.5-7.859Z"></path>
	<path fill="#fff" d="M51,31.75a.944.944,0,0,1-.189-.018l-2-.38a1,1,0,0,1,.375-1.965l2,.381A1,1,0,0,1,51,31.75Z"></path>
	<path fill="#fff" d="M23,23l6.311,3.155A7.994,7.994,0,0,0,32.889,27H42L21,16l-1,3Z"></path>
	<path fill="red" d="M45.4,44H3v2a2,2,0,0,0,2,2H44.39a28,28,0,0,0,12.522-2.956l3.877-1.938A4,4,0,0,0,63,39.528V39l-6.831,2.846A27.993,27.993,0,0,1,45.4,44Z"></path>
	<path fill="red" d="M6,46V44H3v2a2,2,0,0,0,2,2H8A2,2,0,0,1,6,46Z"></path>
	<path fill="#fff" d="M1,36H3a8,8,0,0,1,8,8v0a0,0,0,0,1,0,0H3a2,2,0,0,1-2-2V36A0,0,0,0,1,1,36Z"></path>
	<path fill="#fff" d="M6.485,36.807A7.952,7.952,0,0,0,3,36H1v6a2,2,0,0,0,2,2h8a7.953,7.953,0,0,0-1.408-4.528A11.278,11.278,0,0,1,6.485,36.807Z"></path>
	<polygon fill="#fff" points="28 44 24 44 34 27 38 27 28 44"></polygon>
	<polygon fill="#fff" points="25.765 41 24 44 28 44 29.765 41 25.765 41"></polygon>
	<polygon fill="#fff" points="32 44 28 44 38 27 42 27 32 44"></polygon>
	<polygon fill="#fff" points="29.765 41 28 44 32 44 33.765 41 29.765 41"></polygon>
	<path d="M56.685,28.779,42.332,26.045l-6.56-3.436a.989.989,0,0,0-.065-1.316,1,1,0,0,0-1.414,0l-.355.355-2.119-1.11a.985.985,0,0,0-.112-1.245,1,1,0,0,0-1.414,0L30,19.586l-2.134-1.118a.988.988,0,0,0-.159-1.175,1,1,0,0,0-1.414,0l-.23.23-4.6-2.409a1,1,0,0,0-1.412.57l-1,3a1,1,0,0,0,.148.916l2.247,3-7.078,3.146A2.99,2.99,0,0,1,13.151,26H10.657a2.983,2.983,0,0,1-2.122-.878L4.707,21.293A1,1,0,0,0,4,21H1a1,1,0,0,0-.929,1.372l1.407,3.514a2.99,2.99,0,0,1,0,2.228l-1.12,2.8A4.957,4.957,0,0,0,0,32.771V42a3,3,0,0,0,2,2.816V46a3,3,0,0,0,3,3H44.39a29.146,29.146,0,0,0,12.969-3.062L61.236,44A4.973,4.973,0,0,0,64,39.528V37.62A9.009,9.009,0,0,0,56.685,28.779ZM62,37.62v.713l-6.216,2.59A26.858,26.858,0,0,1,45.4,43H33.749l8.756-14.886,13.805,2.63A7.007,7.007,0,0,1,62,37.62ZM38.572,28h1.68L31.428,43H29.749ZM21.577,17.431l3,1.574-.288.288a1,1,0,1,0,1.414,1.414l.73-.73,2.082,1.09-.226.226a1,1,0,1,0,1.414,1.414l.668-.668,2.081,1.091-.163.163a1,1,0,1,0,1.414,1.414l.6-.605L37.936,26H32.889a7.031,7.031,0,0,1-3.131-.739l-6.1-3.05-2.544-3.392ZM2.215,31.656l1.12-2.8a4.986,4.986,0,0,0,0-3.713L2.478,23H3.586l3.535,3.536A4.968,4.968,0,0,0,10.657,28h2.494a4.972,4.972,0,0,0,2.031-.431l7.793-3.464,5.888,2.945a9.048,9.048,0,0,0,3.41.914l-2.665,4.529a1,1,0,0,0,1.725,1.014L34.572,28h1.679L28.163,41.75,27.428,43h-1.68l3.231-5.493a1,1,0,0,0-1.724-1.014L23.428,43H11.941A9.01,9.01,0,0,0,3,35H2V32.771A2.973,2.973,0,0,1,2.215,31.656ZM2,42V37H3a7.011,7.011,0,0,1,6.929,6H3A1,1,0,0,1,2,42Zm58.342.211-3.877,1.938A27.137,27.137,0,0,1,44.39,47H5a1,1,0,0,1-1-1V45H45.4a28.837,28.837,0,0,0,11.154-2.231l5.258-2.191A2.984,2.984,0,0,1,60.342,42.211Z"></path>
</svg>