<?xml version="1.0" encoding="iso-8859-1"?>
<!-- Generator: Adobe Illustrator 18.0.0, SVG Export Plug-In . SVG Version: 6.00 Build 0)  -->
<!DOCTYPE svg PUBLIC "-//W3C//DTD SVG 1.1//EN" "http://www.w3.org/Graphics/SVG/1.1/DTD/svg11.dtd">
<svg xmlns="http://www.w3.org/2000/svg" viewBox="0 0 480.016 480.016">
	<path fill="#fff" d="M471.371,413.579c-7.965-27.692-28.668-62.95-54.38-85c-18.93-16.22-44.46-22.88-68.83-17.66	c-136.645,29.293-133.24-268.946-303.03-264.91c-9.28,0.21-17.67,5.73-21.35,14.25c-15.24,35.21-19.17,73.11-12.93,109.02	c0.03,0.16,0.06,0.32,0.1,0.48c0,109.401,50.874,135.195,37.74,246.32c-1.13,9.56,6.34,17.97,15.96,17.97h13.68	c9.48,0,16.9-8.19,15.98-17.63c-13.01-133.18-11.99-152.28,1.56-196.31c68.792,43.107,115.537,113.303,139.04,191.02	c4.1,13.6,16.6,22.92,30.8,22.92h190.19C466.581,434.049,474.342,423.829,471.371,413.579z"></path>
	<path fill="red" d="M72.523,423.408c1.77,4.907-1.64,10.597-7.872,10.641c-9.62,0.069-17.09-8.41-15.96-17.97	c13.13-111.09-37.73-136.93-37.74-246.289c1.67,8.49,7.92,15.329,16.16,18.03c2.46,0.81,4.95,1.65,7.47,2.55	c5.81,92.56,49.37,121.94,37.11,225.71C71.387,418.652,71.706,421.142,72.523,423.408z"></path>
	<path fill="red" d="M471.371,413.579c2.97,10.25-4.79,20.47-15.47,20.47h-190.19c-14.2,0-26.7-9.32-30.8-22.92	c-2.35-7.77-5.26-16.56-8.88-26.08h233.83C465.151,395.519,469.021,405.409,471.371,413.579z"></path>
	<path fill="#fff" d="M417.249,328.8c5.474,4.714,0.979,13.593-6.09,12.1c-10.759-2.272-21.996-2.336-32.998,0.019	c-27.435,5.88-49.265-1.508-67.997-17.031c-5.596-4.637-1.379-13.678,5.755-12.287c9.856,1.921,20.538,1.826,32.242-0.682	C371.997,305.813,397.665,311.937,417.249,328.8z"></path>
	<path d="M479.06,411.355c-7.669-26.537-28.226-64.301-56.865-88.847c-20.827-17.852-49.134-25.107-75.711-19.408 C218.5,330.55,220.608,34.058,44.949,38.007c-12.431,0.289-23.623,7.776-28.514,19.074C0.95,92.858-3.71,132.092,2.954,170.548 C3.196,280.947,53.571,306.6,40.748,415.137c-1.692,14.307,9.495,26.912,23.907,26.912h13.672 c14.201,0,25.328-12.272,23.946-26.409c-7.522-76.983-10.704-118.611-8.438-146.968c0.352-4.404-2.933-8.26-7.337-8.612 c-4.397-0.35-8.26,2.933-8.612,7.337c-2.363,29.562,0.846,71.858,8.463,149.8c0.465,4.744-3.253,8.853-8.022,8.853H64.655 c-4.845,0-8.586-4.217-8.019-9.035C69.002,312.356,26.456,282,19.818,193.395c12.23,6.291,116.22,29.628,181.246,155.29 c2.031,3.923,6.857,5.457,10.782,3.429c3.924-2.031,5.459-6.858,3.429-10.782C173.092,259.818,107.85,205.817,29.604,180.215 c-5.828-1.907-9.884-6.703-10.87-12.308C12.581,132.5,16.863,96.374,31.119,63.436c2.418-5.586,7.993-9.289,14.202-9.434 c82.268-1.972,121.074,70.738,159.775,143.573c35.005,65.875,71.503,136.863,144.741,121.169 c21.73-4.655,44.886,1.291,61.945,15.912c26.131,22.396,44.898,56.89,51.906,81.141c1.479,5.116-2.404,10.251-7.783,10.251H265.711 c-10.731,0-20.031-6.923-23.142-17.228c-1.59-5.269-3.315-10.54-5.133-15.772H403.85c4.418,0,8-3.582,8-8s-3.582-8-8-8 c-191.355,0-178.006-0.022-178.613,0.039c-4.196,0.442-7.226,3.929-7.226,7.961c0,3.214,2.562,6.27,9.24,28.396 c5.164,17.109,20.619,28.604,38.459,28.604h190.195C471.957,442.049,483.493,426.696,479.06,411.355z"></path>
	<path d="M67.524,88.76c0.151-0.484,0.305-0.968,0.459-1.452c1.349-4.207-0.97-8.711-5.178-10.059 c-4.211-1.355-8.711,0.97-10.059,5.178c-0.168,0.521-0.333,1.044-0.496,1.567c-1.603,5.138,2.234,10.385,7.639,10.385 C63.298,94.379,66.456,92.184,67.524,88.76z"></path>
	<path d="M53.522,112.669c-4.384-0.534-8.367,2.607-8.892,6.995c-1.102,9.226-1.561,18.618-1.362,27.914 c0.092,4.347,3.658,7.905,8.168,7.828c4.417-0.094,7.922-3.751,7.828-8.168c-0.182-8.552,0.24-17.191,1.253-25.678 C61.042,117.174,57.91,113.192,53.522,112.669z"></path>
</svg>